<?xml version="1.0" encoding="UTF-8" standalone="no"?>
<!DOCTYPE svg PUBLIC "-//W3C//DTD SVG 1.1//EN"
 "http://www.w3.org/Graphics/SVG/1.1/DTD/svg11.dtd">
<!-- Generated by graphviz version 5.0.0 (20220707.1540)
 -->
<!-- Title: dependencies Pages: 1 -->
<svg width="342pt" height="247pt"
 viewBox="0.00 0.00 342.00 246.80" xmlns="http://www.w3.org/2000/svg" xmlns:xlink="http://www.w3.org/1999/xlink">
<g id="graph0" class="graph" transform="scale(1 1) rotate(0) translate(4 242.8)">
<title>dependencies</title>
<polygon fill="white" stroke="transparent" points="-4,4 -4,-242.8 338,-242.8 338,4 -4,4"/>
<text text-anchor="middle" x="167" y="-8.2" font-family="sans-serif" font-size="14.00">dependencies</text>
<g id="clust1" class="cluster">
<title>cluster_EatingPlanModule</title>
<polygon fill="none" stroke="black" stroke-dasharray="1,5" points="8,-32.8 8,-230.8 326,-230.8 326,-32.8 8,-32.8"/>
</g>
<g id="clust3" class="cluster">
<title>cluster_EatingPlanModule_imports</title>
<polygon fill="none" stroke="black" points="204,-40.8 204,-92.8 318,-92.8 318,-40.8 204,-40.8"/>
</g>
<g id="clust4" class="cluster">
<title>cluster_EatingPlanModule_exports</title>
<polygon fill="none" stroke="black" points="108,-170.8 108,-222.8 246,-222.8 246,-170.8 108,-170.8"/>
</g>
<g id="clust6" class="cluster">
<title>cluster_EatingPlanModule_providers</title>
<polygon fill="none" stroke="black" points="16,-40.8 16,-92.8 196,-92.8 196,-40.8 16,-40.8"/>
</g>
<!-- RecipeModule -->
<g id="node1" class="node">
<title>RecipeModule</title>
<polygon fill="#8dd3c7" stroke="black" points="310.42,-84.8 307.42,-88.8 286.42,-88.8 283.42,-84.8 211.58,-84.8 211.58,-48.8 310.42,-48.8 310.42,-84.8"/>
<text text-anchor="middle" x="261" y="-62.6" font-family="Times,serif" font-size="14.00">RecipeModule</text>
</g>
<!-- EatingPlanModule -->
<g id="node2" class="node">
<title>EatingPlanModule</title>
<polygon fill="#8dd3c7" stroke="black" points="237.49,-149.8 234.49,-153.8 213.49,-153.8 210.49,-149.8 116.51,-149.8 116.51,-113.8 237.49,-113.8 237.49,-149.8"/>
<text text-anchor="middle" x="177" y="-127.6" font-family="Times,serif" font-size="14.00">EatingPlanModule</text>
</g>
<!-- RecipeModule&#45;&gt;EatingPlanModule -->
<g id="edge1" class="edge">
<title>RecipeModule&#45;&gt;EatingPlanModule</title>
<path fill="none" stroke="black" d="M224.64,-84.91C224.64,-84.91 224.64,-103.79 224.64,-103.79"/>
<polygon fill="black" stroke="black" points="221.14,-103.79 224.64,-113.79 228.14,-103.79 221.14,-103.79"/>
</g>
<!-- EatingPlanService  -->
<g id="node3" class="node">
<title>EatingPlanService </title>
<polygon fill="#fb8072" stroke="black" points="238.41,-214.8 115.59,-214.8 115.59,-178.8 238.41,-178.8 238.41,-214.8"/>
<text text-anchor="middle" x="177" y="-192.6" font-family="Times,serif" font-size="14.00">EatingPlanService </text>
</g>
<!-- EatingPlanModule&#45;&gt;EatingPlanService  -->
<g id="edge2" class="edge">
<title>EatingPlanModule&#45;&gt;EatingPlanService </title>
<path fill="none" stroke="black" stroke-dasharray="5,2" d="M177,-149.91C177,-149.91 177,-168.79 177,-168.79"/>
<polygon fill="black" stroke="black" points="173.5,-168.79 177,-178.79 180.5,-168.79 173.5,-168.79"/>
</g>
<!-- EatingPlanService -->
<g id="node4" class="node">
<title>EatingPlanService</title>
<ellipse fill="#fdb462" stroke="black" cx="106" cy="-66.8" rx="82.24" ry="18"/>
<text text-anchor="middle" x="106" y="-62.6" font-family="Times,serif" font-size="14.00">EatingPlanService</text>
</g>
<!-- EatingPlanService&#45;&gt;EatingPlanModule -->
<g id="edge3" class="edge">
<title>EatingPlanService&#45;&gt;EatingPlanModule</title>
<path fill="none" stroke="black" d="M152.44,-81.88C152.44,-81.88 152.44,-103.56 152.44,-103.56"/>
<polygon fill="black" stroke="black" points="148.94,-103.56 152.44,-113.56 155.94,-103.56 148.94,-103.56"/>
</g>
</g>
</svg>
