<?xml version="1.0" encoding="UTF-8" standalone="no"?>
<!DOCTYPE svg PUBLIC "-//W3C//DTD SVG 1.1//EN"
 "http://www.w3.org/Graphics/SVG/1.1/DTD/svg11.dtd">
<!-- Generated by graphviz version 5.0.0 (20220707.1540)
 -->
<!-- Title: dependencies Pages: 1 -->
<svg width="332pt" height="247pt"
 viewBox="0.00 0.00 332.00 246.80" xmlns="http://www.w3.org/2000/svg" xmlns:xlink="http://www.w3.org/1999/xlink">
<g id="graph0" class="graph" transform="scale(1 1) rotate(0) translate(4 242.8)">
<title>dependencies</title>
<polygon fill="white" stroke="transparent" points="-4,4 -4,-242.8 328,-242.8 328,4 -4,4"/>
<text text-anchor="middle" x="162" y="-8.2" font-family="sans-serif" font-size="14.00">dependencies</text>
<g id="clust1" class="cluster">
<title>cluster_UserModule</title>
<polygon fill="none" stroke="black" stroke-dasharray="1,5" points="8,-32.8 8,-230.8 316,-230.8 316,-32.8 8,-32.8"/>
</g>
<g id="clust4" class="cluster">
<title>cluster_UserModule_exports</title>
<polygon fill="none" stroke="black" points="115,-170.8 115,-222.8 219,-222.8 219,-170.8 115,-170.8"/>
</g>
<g id="clust6" class="cluster">
<title>cluster_UserModule_providers</title>
<polygon fill="none" stroke="black" points="176,-40.8 176,-92.8 308,-92.8 308,-40.8 176,-40.8"/>
</g>
<g id="clust3" class="cluster">
<title>cluster_UserModule_imports</title>
<polygon fill="none" stroke="black" points="16,-40.8 16,-92.8 168,-92.8 168,-40.8 16,-40.8"/>
</g>
<!-- ShoppingListModule -->
<g id="node1" class="node">
<title>ShoppingListModule</title>
<polygon fill="#8dd3c7" stroke="black" points="159.51,-84.8 156.51,-88.8 135.51,-88.8 132.51,-84.8 24.49,-84.8 24.49,-48.8 159.51,-48.8 159.51,-84.8"/>
<text text-anchor="middle" x="92" y="-62.6" font-family="Times,serif" font-size="14.00">ShoppingListModule</text>
</g>
<!-- UserModule -->
<g id="node2" class="node">
<title>UserModule</title>
<polygon fill="#8dd3c7" stroke="black" points="209.99,-149.8 206.99,-153.8 185.99,-153.8 182.99,-149.8 124.01,-149.8 124.01,-113.8 209.99,-113.8 209.99,-149.8"/>
<text text-anchor="middle" x="167" y="-127.6" font-family="Times,serif" font-size="14.00">UserModule</text>
</g>
<!-- ShoppingListModule&#45;&gt;UserModule -->
<g id="edge1" class="edge">
<title>ShoppingListModule&#45;&gt;UserModule</title>
<path fill="none" stroke="black" d="M141.76,-84.91C141.76,-84.91 141.76,-103.79 141.76,-103.79"/>
<polygon fill="black" stroke="black" points="138.26,-103.79 141.76,-113.79 145.26,-103.79 138.26,-103.79"/>
</g>
<!-- UserService  -->
<g id="node3" class="node">
<title>UserService </title>
<polygon fill="#fb8072" stroke="black" points="210.91,-214.8 123.09,-214.8 123.09,-178.8 210.91,-178.8 210.91,-214.8"/>
<text text-anchor="middle" x="167" y="-192.6" font-family="Times,serif" font-size="14.00">UserService </text>
</g>
<!-- UserModule&#45;&gt;UserService  -->
<g id="edge2" class="edge">
<title>UserModule&#45;&gt;UserService </title>
<path fill="none" stroke="black" stroke-dasharray="5,2" d="M167,-149.91C167,-149.91 167,-168.79 167,-168.79"/>
<polygon fill="black" stroke="black" points="163.5,-168.79 167,-178.79 170.5,-168.79 163.5,-168.79"/>
</g>
<!-- UserService -->
<g id="node4" class="node">
<title>UserService</title>
<ellipse fill="#fdb462" stroke="black" cx="242" cy="-66.8" rx="58.46" ry="18"/>
<text text-anchor="middle" x="242" y="-62.6" font-family="Times,serif" font-size="14.00">UserService</text>
</g>
<!-- UserService&#45;&gt;UserModule -->
<g id="edge3" class="edge">
<title>UserService&#45;&gt;UserModule</title>
<path fill="none" stroke="black" d="M196.88,-78.42C196.88,-78.42 196.88,-103.65 196.88,-103.65"/>
<polygon fill="black" stroke="black" points="193.38,-103.65 196.88,-113.65 200.38,-103.65 193.38,-103.65"/>
</g>
</g>
</svg>
