<?xml version="1.0" encoding="UTF-8" standalone="no"?>
<!DOCTYPE svg PUBLIC "-//W3C//DTD SVG 1.1//EN"
 "http://www.w3.org/Graphics/SVG/1.1/DTD/svg11.dtd">
<!-- Generated by graphviz version 5.0.0 (20220707.1540)
 -->
<!-- Title: dependencies Pages: 1 -->
<svg width="503pt" height="174pt"
 viewBox="0.00 0.00 503.00 173.80" xmlns="http://www.w3.org/2000/svg" xmlns:xlink="http://www.w3.org/1999/xlink">
<g id="graph0" class="graph" transform="scale(1 1) rotate(0) translate(4 169.8)">
<title>dependencies</title>
<polygon fill="white" stroke="transparent" points="-4,4 -4,-169.8 499,-169.8 499,4 -4,4"/>
<text text-anchor="middle" x="247.5" y="-8.2" font-family="sans-serif" font-size="14.00">dependencies</text>
<g id="clust1" class="cluster">
<title>cluster_AppModule</title>
<polygon fill="none" stroke="black" stroke-dasharray="1,5" points="8,-32.8 8,-157.8 487,-157.8 487,-32.8 8,-32.8"/>
</g>
<g id="clust3" class="cluster">
<title>cluster_AppModule_imports</title>
<polygon fill="none" stroke="black" points="16,-40.8 16,-92.8 479,-92.8 479,-40.8 16,-40.8"/>
</g>
<!-- AuthModule -->
<g id="node1" class="node">
<title>AuthModule</title>
<polygon fill="#8dd3c7" stroke="black" points="470.55,-84.8 467.55,-88.8 446.55,-88.8 443.55,-84.8 383.45,-84.8 383.45,-48.8 470.55,-48.8 470.55,-84.8"/>
<text text-anchor="middle" x="427" y="-62.6" font-family="Times,serif" font-size="14.00">AuthModule</text>
</g>
<!-- AppModule -->
<g id="node5" class="node">
<title>AppModule</title>
<polygon fill="#8dd3c7" stroke="black" points="282.66,-149.8 279.66,-153.8 258.66,-153.8 255.66,-149.8 199.34,-149.8 199.34,-113.8 282.66,-113.8 282.66,-149.8"/>
<text text-anchor="middle" x="241" y="-127.6" font-family="Times,serif" font-size="14.00">AppModule</text>
</g>
<!-- AuthModule&#45;&gt;AppModule -->
<g id="edge1" class="edge">
<title>AuthModule&#45;&gt;AppModule</title>
<path fill="none" stroke="black" d="M427,-84.91C427,-104.14 427,-131.8 427,-131.8 427,-131.8 292.74,-131.8 292.74,-131.8"/>
<polygon fill="black" stroke="black" points="292.74,-128.3 282.74,-131.8 292.74,-135.3 292.74,-128.3"/>
</g>
<!-- EatingPlanModule -->
<g id="node2" class="node">
<title>EatingPlanModule</title>
<polygon fill="#8dd3c7" stroke="black" points="365.49,-84.8 362.49,-88.8 341.49,-88.8 338.49,-84.8 244.51,-84.8 244.51,-48.8 365.49,-48.8 365.49,-84.8"/>
<text text-anchor="middle" x="305" y="-62.6" font-family="Times,serif" font-size="14.00">EatingPlanModule</text>
</g>
<!-- EatingPlanModule&#45;&gt;AppModule -->
<g id="edge2" class="edge">
<title>EatingPlanModule&#45;&gt;AppModule</title>
<path fill="none" stroke="black" d="M263.67,-84.91C263.67,-84.91 263.67,-103.79 263.67,-103.79"/>
<polygon fill="black" stroke="black" points="260.17,-103.79 263.67,-113.79 267.17,-103.79 260.17,-103.79"/>
</g>
<!-- RecipeModule -->
<g id="node3" class="node">
<title>RecipeModule</title>
<polygon fill="#8dd3c7" stroke="black" points="226.42,-84.8 223.42,-88.8 202.42,-88.8 199.42,-84.8 127.58,-84.8 127.58,-48.8 226.42,-48.8 226.42,-84.8"/>
<text text-anchor="middle" x="177" y="-62.6" font-family="Times,serif" font-size="14.00">RecipeModule</text>
</g>
<!-- RecipeModule&#45;&gt;AppModule -->
<g id="edge3" class="edge">
<title>RecipeModule&#45;&gt;AppModule</title>
<path fill="none" stroke="black" d="M212.69,-84.91C212.69,-84.91 212.69,-103.79 212.69,-103.79"/>
<polygon fill="black" stroke="black" points="209.19,-103.79 212.69,-113.79 216.19,-103.79 209.19,-103.79"/>
</g>
<!-- UserModule -->
<g id="node4" class="node">
<title>UserModule</title>
<polygon fill="#8dd3c7" stroke="black" points="109.99,-84.8 106.99,-88.8 85.99,-88.8 82.99,-84.8 24.01,-84.8 24.01,-48.8 109.99,-48.8 109.99,-84.8"/>
<text text-anchor="middle" x="67" y="-62.6" font-family="Times,serif" font-size="14.00">UserModule</text>
</g>
<!-- UserModule&#45;&gt;AppModule -->
<g id="edge4" class="edge">
<title>UserModule&#45;&gt;AppModule</title>
<path fill="none" stroke="black" d="M67,-84.91C67,-104.14 67,-131.8 67,-131.8 67,-131.8 189.32,-131.8 189.32,-131.8"/>
<polygon fill="black" stroke="black" points="189.32,-135.3 199.32,-131.8 189.32,-128.3 189.32,-135.3"/>
</g>
</g>
</svg>
